<?xml version="1.0" standalone="no"?>
<!DOCTYPE svg PUBLIC "-//W3C//DTD SVG 20010904//EN"
 "http://www.w3.org/TR/2001/REC-SVG-20010904/DTD/svg10.dtd">
<svg version="1.0" xmlns="http://www.w3.org/2000/svg"
 width="500.000000pt" height="500.000000pt" viewBox="0 0 500.000000 500.000000"
 preserveAspectRatio="xMidYMid meet">

<g transform="translate(0.000000,500.000000) scale(0.100000,-0.100000)"
fill="#ffff" stroke="none">
<path d="M3134 2725 c-4 -9 -2 -21 4 -27 16 -16 47 -5 47 17 0 26 -42 34 -51
10z"/>
<path d="M4154 2725 c-4 -9 -2 -21 4 -27 16 -16 47 -5 47 17 0 26 -42 34 -51
10z"/>
<path d="M2860 2585 l0 -145 25 0 c17 0 25 6 25 17 0 14 2 14 20 -2 13 -12 35
-19 58 -18 102 3 129 164 35 212 -30 15 -65 14 -91 -5 -22 -15 -22 -15 -22 35
0 48 -2 51 -25 51 l-25 0 0 -145z m154 9 c38 -38 11 -114 -41 -114 -29 0 -63
33 -63 63 0 56 66 89 104 51z"/>
<path d="M3240 2585 l0 -145 25 0 25 0 0 145 0 145 -25 0 -25 0 0 -145z"/>
<path d="M2145 2699 c4 -12 30 -75 57 -141 46 -109 53 -119 75 -116 21 3 32
21 79 132 30 71 54 133 54 137 0 5 -11 9 -24 9 -21 0 -29 -13 -66 -105 -23
-58 -44 -105 -45 -103 -2 2 -21 48 -43 103 -35 89 -43 100 -67 103 -24 3 -26
1 -20 -19z"/>
<path d="M3640 2583 c50 -121 60 -138 82 -141 22 -3 28 6 76 120 73 175 69
160 37 156 -25 -3 -32 -13 -70 -106 l-42 -103 -43 105 c-40 98 -46 106 -71
106 l-27 0 58 -137z"/>
<path d="M2492 2647 c-53 -30 -71 -111 -37 -163 24 -37 79 -58 118 -44 37 12
67 38 67 57 0 18 -44 17 -60 -2 -16 -20 -54 -19 -74 1 -29 28 -17 34 64 34 78
0 80 1 80 25 0 80 -87 131 -158 92z m86 -43 c35 -24 26 -34 -33 -34 -30 0 -55
4 -55 9 0 12 40 41 55 41 6 0 21 -7 33 -16z"/>
<path d="M3404 2651 c-91 -39 -83 -184 11 -210 78 -21 145 30 145 111 0 73
-87 128 -156 99z m88 -58 c37 -33 9 -113 -40 -113 -33 0 -62 29 -62 62 0 59
60 89 102 51z"/>
<path d="M3939 2643 c-36 -22 -50 -48 -51 -94 0 -49 24 -87 67 -105 98 -41
189 61 140 156 -28 55 -104 76 -156 43z m110 -65 c21 -36 5 -79 -32 -92 -33
-12 -56 -1 -74 34 -12 25 -2 68 20 82 25 17 71 4 86 -24z"/>
<path d="M4285 2627 c-29 -29 -35 -42 -35 -79 0 -24 7 -54 16 -67 22 -31 77
-53 112 -45 31 8 82 51 82 71 0 20 -37 16 -60 -7 -24 -24 -48 -25 -78 -4 -28
19 -30 74 -4 97 23 21 65 22 82 2 14 -16 60 -21 60 -6 0 6 -10 22 -23 36 -17
20 -35 28 -70 32 -43 5 -49 3 -82 -30z"/>
<path d="M4555 2651 c-59 -25 -82 -111 -46 -168 27 -43 85 -60 135 -39 29 12
56 41 56 60 0 13 -48 5 -60 -10 -19 -22 -69 -14 -88 14 l-14 22 81 0 c64 0 83
3 87 15 8 19 -12 68 -36 90 -22 20 -86 29 -115 16z m69 -41 c14 -5 26 -16 26
-25 0 -11 -12 -15 -50 -15 -38 0 -50 4 -50 15 0 13 15 23 47 34 1 1 13 -3 27
-9z"/>
<path d="M2690 2545 l0 -105 25 0 c23 0 25 4 25 43 0 23 5 59 11 80 8 30 16
39 40 44 20 4 29 11 29 24 0 24 -36 25 -62 2 -17 -15 -18 -15 -18 0 0 11 -8
17 -25 17 l-25 0 0 -105z"/>
<path d="M3130 2545 l0 -105 25 0 25 0 0 105 0 105 -25 0 -25 0 0 -105z"/>
<path d="M4150 2545 l0 -105 25 0 25 0 0 105 0 105 -25 0 -25 0 0 -105z"/>
</g>
</svg>
