<?xml version="1.0" standalone="no"?>
<!DOCTYPE svg PUBLIC "-//W3C//DTD SVG 20010904//EN"
 "http://www.w3.org/TR/2001/REC-SVG-20010904/DTD/svg10.dtd">
<svg version="1.0" xmlns="http://www.w3.org/2000/svg"
 width="500.000000pt" height="500.000000pt" viewBox="0 0 500.000000 500.000000"
 preserveAspectRatio="xMidYMid meet">

<g transform="translate(0.000000,500.000000) scale(0.100000,-0.100000)"
fill="#10b981" stroke="none">
<path d="M0 2500 l0 -2500 2500 0 2500 0 0 2500 0 2500 -2500 0 -2500 0 0
-2500z m1450 781 c14 -27 14 -1535 0 -1562 -14 -25 -56 -25 -70 0 -14 27 -14
1535 0 1562 6 11 21 19 35 19 14 0 29 -8 35 -19z m2395 -781 l0 -765 -35 0
-35 0 -3 755 c-1 415 0 761 3 768 3 8 17 12 37 10 l33 -3 0 -765z m-657 718
c9 -9 12 -182 12 -719 0 -764 2 -735 -52 -727 l-23 3 -3 715 c-1 393 0 721 3
728 6 15 47 16 63 0z m-1523 -718 l0 -665 -23 -3 c-54 -8 -52 -32 -52 667 0
502 3 650 12 659 7 7 24 12 38 10 l25 -3 0 -665z m1745 619 c6 -11 10 -250 10
-623 0 -595 0 -606 -20 -626 -22 -22 -52 -15 -64 16 -3 8 -6 288 -6 620 0 588
1 605 20 624 22 22 45 18 60 -11z m-1525 -619 l0 -605 -35 0 -35 0 -3 585 c-1
322 0 595 3 608 5 19 11 23 38 20 l32 -3 0 -605z m1076 580 c18 -10 19 -27 19
-580 0 -559 0 -569 -20 -580 -14 -8 -26 -8 -40 0 -20 11 -20 21 -20 580 0 531
1 570 18 579 21 13 20 13 43 1z m664 -580 l0 -505 -23 -3 c-53 -8 -52 -18 -52
507 0 521 -1 515 50 509 l25 -3 0 -505z m-2397 448 c9 -9 12 -122 12 -449 0
-475 1 -469 -55 -455 l-25 6 0 449 c0 350 3 450 13 454 22 9 43 7 55 -5z m866
-44 c14 -13 16 -65 16 -409 0 -384 -1 -395 -20 -405 -14 -8 -26 -8 -40 0 -19
10 -20 21 -20 410 0 369 1 400 18 409 23 14 28 14 46 -5z m-1299 -404 l0 -405
-29 -3 c-16 -2 -32 2 -37 10 -5 7 -9 186 -9 399 0 412 0 413 50 407 l25 -3 0
-405z m3263 368 c9 -9 12 -105 12 -369 0 -384 0 -385 -52 -377 l-23 3 -3 365
c-1 201 0 371 3 377 6 16 47 17 63 1z m-3057 -8 c18 -10 19 -25 19 -360 0
-339 -1 -350 -20 -360 -14 -8 -26 -8 -40 0 -19 10 -20 21 -20 360 0 322 1 350
18 359 21 13 20 13 43 1z m1313 -126 c14 -13 16 -49 16 -234 0 -185 -2 -221
-16 -234 -8 -9 -21 -16 -28 -16 -33 0 -36 23 -36 252 0 206 2 228 18 237 23
14 28 14 46 -5z m1956 -4 c12 -8 16 -45 18 -212 2 -111 1 -212 -2 -224 -7 -27
-41 -40 -61 -24 -20 16 -22 439 -3 458 14 14 28 15 48 2z m-1742 -72 c8 -8 12
-58 12 -158 0 -145 -5 -170 -36 -170 -7 0 -20 7 -28 16 -23 23 -23 285 0 308
19 19 36 20 52 4z m220 0 c8 -8 12 -58 12 -159 0 -163 -7 -183 -55 -161 -25
12 -25 12 -25 161 0 132 2 151 18 160 23 14 36 13 50 -1z m-2187 -28 c17 -10
19 -22 19 -128 0 -117 -6 -142 -36 -142 -7 0 -20 7 -28 16 -24 23 -23 220 1
246 19 21 19 21 44 8z"/>
</g>
</svg>
